<svg width="512" height="512" viewBox="0 0 512 512" fill="none" xmlns="http://www.w3.org/2000/svg">
<path d="M232.684 85.115C236.778 85.0023 240.875 85.1095 244.957 85.436C250.15 85.8935 253.995 86.6498 259.393 86.7518C266.73 86.8905 272.988 86.0815 280.075 85.5333C289.13 85.1165 298.43 86.6398 306.508 90.6988C314.89 94.9108 319.185 101.371 326.363 106.642C332.015 110.793 339.543 112.783 345.675 116.451C351.785 120.107 356.725 125.012 360.503 131.133C366.028 140.909 367.56 152.034 372.515 162.518C378.978 176.19 388.375 188.807 392.56 203.302C394.915 211.456 395.565 221.323 394.19 229.669C392.055 242.637 384.863 253.863 380.458 266.268C376.185 278.29 373.525 291.52 367.143 302.58C363.405 309.053 358.403 314.708 352.438 319.21C342.04 326.973 331.465 330.22 320.273 335.935C304.995 343.735 296.82 352.893 279.563 357.575C277.223 358.32 272.78 358.673 270.305 358.818C257.383 359.573 246.692 353.89 234.374 351.83C224.231 350.132 214.39 351.305 204.132 349.15C180.9 344.27 174.12 324.985 160.196 308.995C156.228 304.438 150.759 300.14 146.322 296.15C134.518 285.54 130.038 275.39 128.745 259.583C128.306 254.21 127.686 248.609 126.119 243.377C122.545 232.244 117.739 224.26 116.931 212.343C115.955 197.964 123.008 192.855 127.688 180.92C133.504 166.091 133.435 151.107 145.573 138.805C153.365 130.908 161.995 126.298 170.757 119.681C177.922 114.099 184.588 106.366 191.624 100.64C203.442 91.0193 217.564 85.666 232.684 85.115ZM282.413 353.902C285.275 352.852 289.148 351.505 291.753 350.038C300.238 345.258 307.653 339.805 316.22 334.968C326.433 329.203 341.99 324.093 350.903 317.013C358.075 311.345 363.785 304.04 367.553 295.71C372.05 285.983 374.268 275.33 377.963 265.293C380.858 257.43 384.628 250.015 387.768 242.194C393.788 227.206 393.543 213.5 388.055 198.482C383.335 185.56 375.525 175.793 369.875 163.347C364.91 152.411 363.343 140.222 356.713 130.258C352.645 124.147 346.62 119.391 340.015 116.438C334.458 113.953 327.123 111.12 322.585 107.101C316.695 101.882 314.623 98.663 307.648 94.4415C291.605 84.731 277.075 89.6663 259.883 89.5228C254.605 89.4788 248.053 88.425 242.624 88.1095C237.704 87.8235 233.367 87.846 228.432 88.0838C217.968 89.7508 210.08 91.8683 200.789 97.378C190.312 103.591 181.803 114.501 172.101 122.014C165.19 127.366 158.178 131.12 151.568 136.847C148.633 139.355 146.004 142.201 143.735 145.324C134.104 158.521 134.815 175.158 126.663 189.078C121.405 198.057 117.984 206.024 119.96 216.749C121.82 226.84 127.28 235.522 129.246 245.608C131.801 257.125 131.099 269.065 136.529 279.713C141.533 289.565 149.8 295.383 157.807 302.585C170.231 313.765 176.158 330.068 189.845 339.958C193.891 342.918 198.49 345.032 203.369 346.182C212.35 348.335 222.22 347.108 231.206 348.658C250.773 352.028 261.935 359.3 282.413 353.902Z" fill="black" fill-opacity="0.980392"/>
<path d="M248.153 98.0323C315.815 93.713 374.12 145.162 378.255 212.834C382.387 280.505 330.78 338.67 263.097 342.62C195.675 346.555 137.783 295.19 133.665 227.778C129.546 160.367 180.754 102.335 248.153 98.0323ZM260.36 339.975C326.445 337.538 378.042 281.988 375.605 215.903C373.167 149.817 317.62 98.219 251.535 100.654C185.447 103.089 133.847 158.639 136.283 224.727C138.72 290.815 194.272 342.415 260.36 339.975Z" fill="black" fill-opacity="0.980392"/>
<path d="M248.512 181.077C252.29 180.925 256.265 180.991 260.06 180.999C260.052 181.101 260.01 181.631 260.01 181.711C260.015 188.659 260.04 195.668 260.04 202.609L260.09 246.486L260.107 282.86C260.11 292.66 259.417 303.74 261.755 313.273C263.22 319.24 268.315 318.238 270.772 321.01L270.647 321.303C268.79 322.048 262.39 321.79 260.012 321.778C256.412 321.758 239.879 322.165 238.148 321.35C238.737 319.698 243.878 318.41 245.25 316.523C249.657 310.465 248.554 299.558 248.57 292.423C248.639 283.905 248.652 275.388 248.611 266.87L248.592 213.045C248.494 202.39 248.467 191.733 248.512 181.077Z" fill="black"/>
<path d="M180.229 190.317C185.66 189.978 193.753 190.225 199.349 190.227C212.582 190.276 225.816 190.25 239.049 190.147C239.078 195.95 239.131 201.756 239.139 207.559C239.141 208.74 239.269 210.028 238.005 210.283C236.831 209.537 236.314 205.436 235.625 203.537C235.09 202.099 234.353 200.746 233.434 199.518C226.315 189.992 210.714 195.006 200.147 193.425C200.207 195.194 200.22 197.038 200.196 198.81C200.058 208.986 200.507 219.341 200.083 229.499C205.896 229.421 212.669 229.571 218.453 229.49C226.757 229.373 224.11 220.941 227.071 219.403L227.536 219.678C228.408 221.447 228.166 236.465 228.162 239.578C228.095 240.977 228.622 243.91 227.03 244.18C224.714 242.788 225.773 234.189 220.524 233.466C213.851 232.548 206.929 233.219 200.156 233.008C200.365 239.604 199.063 265.288 201.906 269.415C203.801 272.165 209.372 271.84 210.571 273.992L210.417 274.312C206.887 275.62 197.387 274.625 193.233 274.87C190.923 275.005 181.22 275.39 179.844 274.182L179.83 273.715C180.628 272.525 184.329 271.805 186.491 270.72C190.099 265.745 189.236 261.07 189.225 255.157L189.186 238.421L189.209 215.757C189.23 209.47 189.833 202.748 188.117 196.695C186.794 192.027 181.439 193.094 180.013 191.15L180.229 190.317Z" fill="black"/>
<path d="M265.47 185.304L309.455 185.34C317.562 185.348 327.127 185.571 335.09 185.144C335.05 190.751 335.207 196.542 335.067 202.153C335.045 203.005 334.872 204.215 334.182 204.795L333.68 204.75C332 203.234 332.602 200.716 331.902 198.696C327.297 185.416 316.005 189.828 305.995 188.582C306.24 203.925 305.887 219.468 306.022 234.821C306.087 242.203 305.775 250.46 306.247 257.755C307.902 268.475 313.43 262.998 315.195 266.948L315.085 267.168C313.97 267.915 309.02 267.99 307.715 267.82C304.93 267.458 287.34 268.433 286.012 267.595C285.905 267.035 285.68 265.568 286.64 265.525C291.26 265.373 294.09 262.378 294.477 257.82C295.23 248.97 294.85 239.874 294.847 230.985C294.867 221.381 294.84 211.778 294.762 202.175C294.735 197.703 294.827 193.003 294.65 188.561C283.775 189.067 272.252 186.475 268.415 200.365C267.987 201.913 267.775 204.609 266.21 205.04L265.782 204.79C265.562 204.379 265.297 203.761 265.325 203.299C265.67 197.531 264.955 190.961 265.47 185.304Z" fill="black"/>
<path d="M344.09 157.913C344.592 158.098 344.712 158.172 345.19 158.422C345.837 159.682 345.705 185.015 345.215 186.802C344.207 187.172 344.677 187.185 343.765 186.93C342.89 185.858 343.122 184.716 342.515 183.491C340.165 178.755 334.167 176.949 329.227 176.805C322.05 176.597 314.825 176.649 307.635 176.656L275.112 176.656L253.402 176.725C248.466 176.72 243.316 176.528 238.411 176.959C231.672 177.553 226.538 179.438 224.544 186.404L224.411 186.835C223.55 187.158 223.98 187.128 223.075 186.915C222.668 186.31 222.895 180.461 222.939 179.281C223.194 172.472 222.643 165.214 223.105 158.457L223.504 158.206C224.964 158.431 224.848 159.51 225.476 160.696C229.585 168.458 240.784 167.005 248.157 167.287C250.975 167.394 253.97 167.304 256.775 167.31L288.987 167.362L315.237 167.366C320.992 167.364 326.867 167.612 332.53 166.816C336.957 166.193 340.02 165.217 342.277 161.121C342.862 160.063 343.352 158.844 344.09 157.913Z" fill="black"/>
<path d="M239.332 117.787C241.723 118.132 245.501 118.097 247.981 118.132C252.61 118.215 257.24 118.237 261.868 118.199C263.688 118.183 270.028 117.724 270.91 118.948C270.755 120.932 265.65 120.925 264.135 122.831C258.425 130.011 260.12 144.419 260.188 153.187C260.165 156.092 260.25 159.103 260.195 162.006C260.19 162.256 260.14 162.751 259.908 162.783C257.825 163.068 250.968 163.145 249.244 162.797C247.221 160.4 250.253 132.115 247.071 126.043C243.258 118.769 240.013 122.03 238.329 119.136C238.591 118.243 238.529 118.509 239.332 117.787Z" fill="black"/>
<path d="M128.547 402.585C136.097 401.775 142.877 407.23 143.701 414.78C144.525 422.328 139.082 429.118 131.536 429.958C123.968 430.798 117.154 425.338 116.328 417.768C115.502 410.198 120.976 403.395 128.547 402.585ZM132.08 428.058C133.048 427.72 134.293 427.328 135.098 426.71C142.718 420.858 139.399 404.145 128.603 404.578C116.278 407.16 119.457 428.808 132.08 428.058Z" fill="black" fill-opacity="0.984314"/>
<path d="M340.502 403.258C346.54 403.33 362.007 401.56 357.977 412.92C357.177 415.178 354.102 416.1 352 416.83C355.825 420.385 357.14 425.825 362.392 429.463C360.037 429.538 357.892 429.878 355.807 428.873C352.227 424.933 351.83 421.725 348.55 418.163C348.067 417.64 347.157 417.513 346.42 417.61C345.62 418.465 345.995 427.553 346 429.313C344.155 429.08 343.11 429.138 341.232 429.205C341.78 423.915 342.72 407.773 340.502 403.258ZM345.727 416.268C347.535 416.21 350.637 416.383 351.91 414.943C355.36 411.208 354.297 409.168 351.602 405.71C349.227 405.15 348.385 405.03 345.907 405.035C345.962 407.783 346.177 413.738 345.727 416.268Z" fill="black" fill-opacity="0.980392"/>
<path d="M87.6433 403.27C93.4353 403.28 99.1523 402.403 103.783 405.798C104.943 408.095 106.174 412.67 103.375 414.333C98.1603 417.433 98.2433 415.67 101.854 421.18C104.065 424.553 105.706 426.778 108.624 429.565C106.326 429.563 104.362 429.733 102.334 428.6C100.538 427.013 96.4101 420.868 95.7933 418.42L92.6951 416.94C92.8866 420.948 92.6521 425.165 92.7946 429.25C90.9046 429.105 90.0338 429.133 88.1328 429.255C88.6788 424.025 89.1298 407.86 87.6433 403.27ZM92.6501 416.298C94.5016 416.08 96.9671 416.043 98.3451 414.848C100.558 412.515 100.369 411.663 100.323 408.46C99.6548 407.595 98.9938 406.723 98.3398 405.848C96.1026 405.273 95.0846 405.078 92.7396 405.008C92.5626 408.725 92.8641 412.48 92.6501 416.298Z" fill="black" fill-opacity="0.984314"/>
<path d="M156.048 403.065C163.335 403.115 160.986 404.217 164.042 409.98C164.877 411.555 169.112 421.515 169.98 421.965C172.259 420.682 177.197 406.15 179.182 403.692C180.273 403.127 181.666 403.202 182.943 403.14C182.406 406.847 184.438 425.685 185.787 429.23C183.654 429.087 182.762 429.077 180.637 429.247C180.264 423.385 179.369 416.705 179.174 411.187L179.219 407.86C175.75 415.472 172.18 422.85 168.631 430.402C167.809 428.295 159.566 410.502 158.944 410.03C158.734 410.307 157.47 426.525 156.735 429.115C156.02 429.757 156.446 429.562 155.35 429.567C153.888 428.672 154.942 427.142 155.022 425.612C155.37 418.932 157.382 412.272 157.159 405.585C157.134 404.842 156.428 403.702 156.048 403.065Z" fill="black" fill-opacity="0.984314"/>
<path d="M238.921 403.157C240.642 403.39 242.074 403.327 243.806 403.302C243.575 407.052 243.99 411.582 243.524 415.215C246.511 414.945 252.865 415.215 256.112 415.28C256.122 411.24 256.1 407.202 256.05 403.165C257.917 403.487 258.817 403.405 260.707 403.325C259.937 409.39 260.832 421.932 260.585 428.59C260.457 428.78 260.33 428.97 260.202 429.157C258.335 429.012 257.89 429.07 256.105 429.345C256.17 425.13 256.205 420.917 256.21 416.702C253.565 416.912 246.13 416.945 243.655 416.645C243.704 419.157 243.942 426.667 243.446 428.832C242.999 429.057 240.404 429.157 239.479 429.305L239.149 429.362C239.421 425.397 239.362 420.912 239.4 416.922C239.443 412.315 239.601 407.712 238.921 403.157Z" fill="black"/>
<path d="M423.41 422.792C422.965 418.917 422.855 408.42 423.108 404.017C423.133 403.58 423.815 403.277 424.267 403.127C425.51 403.677 425.34 406.957 425.17 408.137C424.57 412.272 425.82 427.177 424.435 430.15C423.172 429.077 421.94 427.777 420.855 426.527C415.953 420.872 411.442 414.52 406.175 409.192C406.36 412.065 407.287 428.747 405.025 429.642C404.677 429.47 404.192 429.282 404.155 428.76C403.6 421.15 404.525 413.337 403.785 405.755C403.748 405.362 402.425 403.912 402.052 403.317C403.472 403.202 405.807 403.42 407.3 403.515C409.355 405.537 412.12 409.177 414.01 411.505C417.105 415.3 420.238 419.062 423.41 422.792Z" fill="black" fill-opacity="0.980392"/>
<path d="M437.427 403.167C439.387 403.435 441.028 403.402 443.005 403.407C442.68 407.625 442.943 411.817 442.595 416.082C444.993 413.765 447.555 410.135 449.445 408.432C450.568 409.187 450.123 409.065 451.733 408.79C449.818 411.077 448.615 412.052 446.725 414.662C451.243 419.28 454.367 424.875 459.517 429.485C457.512 429.462 455.437 429.51 453.427 429.532C450.93 427.13 444.285 417.76 442.99 417.345L442.783 417.582C442.658 420.48 442.682 426.482 443.017 429.267C440.87 429.037 440.18 429.065 438.142 429.477C438.472 424.2 439.222 407.335 437.427 403.167Z" fill="black" fill-opacity="0.976471"/>
<path d="M370.167 403.212C371.89 403.457 373.38 403.412 375.115 403.41C375.147 409.212 374.472 419.665 376.217 424.7C377.435 425.777 378.185 426.612 379.737 427.242C383.527 428.785 387.652 426.24 388.177 422.21C388.667 418.47 388.207 414.542 388.247 410.767C388.272 408.28 387.847 405.97 388.695 403.57C389.38 402.912 389 403.035 389.795 403.005C391.002 403.805 391.095 403.647 390.922 405.06C390.472 410.215 391.777 422.565 388.972 426.35C387.54 428.282 385.332 429.345 382.987 429.667C379.997 430.077 376.28 429.505 373.88 427.607C369.375 424.045 370.812 415.952 370.8 410.925C370.795 408.345 370.507 405.767 370.167 403.212Z" fill="black" fill-opacity="0.988235"/>
<path d="M272.692 403.238C276.082 403.438 285.127 402.968 287.725 403.663C288.057 404.238 287.95 404.605 287.897 405.275C287.772 405.388 287.647 405.503 287.525 405.618C284.765 405.575 280.087 405.495 277.527 405.403C277.745 407.785 277.74 413.038 277.502 415.39C279.37 415.25 285.88 414.895 287.06 416.093L286.805 416.413C284.465 417.285 280.285 417.013 277.667 416.993L277.707 420.793C277.715 422.958 277.705 424.763 277.555 426.915C279.325 426.958 287.745 426.575 288.502 427.113C288.665 427.87 288.665 427.813 288.44 428.555C287.33 429.558 276.392 429.003 273.682 429.223L273.282 429.255C273.672 423.748 273.94 408.12 272.692 403.238Z" fill="black"/>
<path d="M61.7192 403.272C66.3845 403.32 72.2655 403.147 76.9222 403.632C77.5137 403.695 77.515 403.905 77.7055 404.255C76.8232 406.507 68.7895 405.535 66.4367 405.335C66.6375 408.452 66.5307 412.26 66.4757 415.392C68.5145 415.315 74.9017 414.775 76.258 415.872C76.3202 417.48 74.8032 417.2 73.6875 417.135C71.1117 417.157 69.0937 417.175 66.5097 416.965C66.5295 418.965 66.902 427.972 66.0335 429.277C64.4442 429.207 63.7662 429.205 62.156 429.355C62.6142 424.357 63.067 407.58 61.7192 403.272Z" fill="black" fill-opacity="0.988235"/>
<path d="M209.246 403.455C211.419 403.357 228.421 403.18 229.314 403.945C229.396 404.887 229.516 404.485 229.013 405.217C227.274 406.05 223.221 405.51 221.141 405.37C221.651 409.135 221.495 417.06 221.507 421.122C221.518 423.865 221.511 426.57 221.641 429.312C219.665 429.062 219.073 429.015 217.1 429.37C217.7 421.835 216.955 412.985 217.565 405.415C215.367 405.54 211.421 406.02 209.542 405.177C209.06 404.4 209.226 404.545 209.246 403.455Z" fill="black" fill-opacity="0.988235"/>
<path d="M311.237 403.22C314.87 403.87 329.297 402.785 331.042 403.867C331.185 404.772 331.272 404.375 330.857 405.117C329.257 406.062 324.942 405.487 323.002 405.295C323.345 409.317 323.14 417.855 323.162 422.21C323.175 423.985 323.337 427.29 322.977 428.882C322.427 429.427 320.617 429.055 319.58 429.172L319.22 428.867C319.035 427.44 319.167 422.017 319.235 420.272C319.402 415.97 318.982 409.535 319.5 405.447C317.447 405.537 312.712 406.082 311.265 405.17C310.907 404.22 311.057 404.375 311.237 403.22Z" fill="black"/>
<path d="M453.54 403.657L457.59 402.45C456.898 403.362 452.503 408.317 451.733 408.79C450.123 409.065 450.568 409.187 449.445 408.432C450.8 406.832 452.165 405.24 453.54 403.657Z" fill="black" fill-opacity="0.968627"/>
</svg>
